<mxfile host="app.diagrams.net" agent="Mozilla/5.0 (Windows NT 10.0; Win64; x64) AppleWebKit/537.36 (KHTML, like Gecko) Chrome/127.0.0.0 Safari/537.36" version="24.7.6">
  <diagram name="Page-1" id="WqYnbw336Vgzk6C8LJyL">
    <mxGraphModel dx="1313" dy="743" grid="0" gridSize="10" guides="1" tooltips="1" connect="1" arrows="1" fold="1" page="1" pageScale="1" pageWidth="1100" pageHeight="850" math="0" shadow="0">
      <root>
        <mxCell id="0" />
        <mxCell id="1" parent="0" />
        <mxCell id="OPfQIELOTpo9MT-wm4Nm-2" value="Accounts" style="swimlane;whiteSpace=wrap;html=1;" vertex="1" parent="1">
          <mxGeometry x="350" y="116" width="200" height="200" as="geometry" />
        </mxCell>
        <mxCell id="OPfQIELOTpo9MT-wm4Nm-3" value="User chats" style="swimlane;whiteSpace=wrap;html=1;startSize=23;" vertex="1" parent="1">
          <mxGeometry x="2013" y="106" width="200" height="200" as="geometry" />
        </mxCell>
        <mxCell id="OPfQIELOTpo9MT-wm4Nm-4" value="Chats" style="swimlane;whiteSpace=wrap;html=1;" vertex="1" parent="1">
          <mxGeometry x="1120" y="116" width="200" height="200" as="geometry" />
        </mxCell>
        <mxCell id="OPfQIELOTpo9MT-wm4Nm-5" value="Groups" style="swimlane;whiteSpace=wrap;html=1;" vertex="1" parent="1">
          <mxGeometry x="2680" y="100" width="200" height="200" as="geometry" />
        </mxCell>
        <UserObject label="&lt;div style=&quot;color: #000000;background-color: #fffffe;font-family: Consolas, &#39;Courier New&#39;, monospace;font-weight: normal;font-size: 14px;line-height: 19px;white-space: pre;&quot;&gt;&lt;div&gt;&lt;br&gt;&lt;/div&gt;&lt;/div&gt;" link="&lt;div style=&quot;color: #000000;background-color: #fffffe;font-family: Consolas, &#39;Courier New&#39;, monospace;font-weight: normal;font-size: 14px;line-height: 19px;white-space: pre;&quot;&gt;&lt;div&gt;&lt;span style=&quot;color: #000000;&quot;&gt;{&lt;/span&gt;&lt;/div&gt;&lt;div&gt;&lt;span style=&quot;color: #000000;&quot;&gt;&amp;nbsp;&amp;nbsp;&lt;/span&gt;&lt;span style=&quot;color: #a31515;&quot;&gt;&quot;createdAt&quot;&lt;/span&gt;&lt;span style=&quot;color: #000000;&quot;&gt;:&amp;nbsp;&lt;/span&gt;&lt;span style=&quot;color: #0451a5;&quot;&gt;&quot;1717176591181&quot;&lt;/span&gt;&lt;span style=&quot;color: #000000;&quot;&gt;,&lt;/span&gt;&lt;/div&gt;&lt;div&gt;&lt;span style=&quot;color: #000000;&quot;&gt;&amp;nbsp;&amp;nbsp;&lt;/span&gt;&lt;span style=&quot;color: #a31515;&quot;&gt;&quot;displayName&quot;&lt;/span&gt;&lt;span style=&quot;color: #000000;&quot;&gt;:&amp;nbsp;&lt;/span&gt;&lt;span style=&quot;color: #0451a5;&quot;&gt;&quot;Jhonny&amp;nbsp;2&quot;&lt;/span&gt;&lt;span style=&quot;color: #000000;&quot;&gt;,&lt;/span&gt;&lt;/div&gt;&lt;div&gt;&lt;span style=&quot;color: #000000;&quot;&gt;&amp;nbsp;&amp;nbsp;&lt;/span&gt;&lt;span style=&quot;color: #a31515;&quot;&gt;&quot;email&quot;&lt;/span&gt;&lt;span style=&quot;color: #000000;&quot;&gt;:&amp;nbsp;&lt;/span&gt;&lt;span style=&quot;color: #0451a5;&quot;&gt;&quot;johnnywilliamssmith2@gmail.com&quot;&lt;/span&gt;&lt;span style=&quot;color: #000000;&quot;&gt;,&lt;/span&gt;&lt;/div&gt;&lt;div&gt;&lt;span style=&quot;color: #000000;&quot;&gt;&amp;nbsp;&amp;nbsp;&lt;/span&gt;&lt;span style=&quot;color: #a31515;&quot;&gt;&quot;emailVerified&quot;&lt;/span&gt;&lt;span style=&quot;color: #000000;&quot;&gt;:&amp;nbsp;&lt;/span&gt;&lt;span style=&quot;color: #0451a5;&quot;&gt;true&lt;/span&gt;&lt;span style=&quot;color: #000000;&quot;&gt;,&lt;/span&gt;&lt;/div&gt;&lt;div&gt;&lt;span style=&quot;color: #000000;&quot;&gt;&amp;nbsp;&amp;nbsp;&lt;/span&gt;&lt;span style=&quot;color: #a31515;&quot;&gt;&quot;isBanned&quot;&lt;/span&gt;&lt;span style=&quot;color: #000000;&quot;&gt;:&amp;nbsp;&lt;/span&gt;&lt;span style=&quot;color: #0451a5;&quot;&gt;false&lt;/span&gt;&lt;span style=&quot;color: #000000;&quot;&gt;,&lt;/span&gt;&lt;/div&gt;&lt;div&gt;&lt;span style=&quot;color: #000000;&quot;&gt;&amp;nbsp;&amp;nbsp;&lt;/span&gt;&lt;span style=&quot;color: #a31515;&quot;&gt;&quot;isGoogle&quot;&lt;/span&gt;&lt;span style=&quot;color: #000000;&quot;&gt;:&amp;nbsp;&lt;/span&gt;&lt;span style=&quot;color: #0451a5;&quot;&gt;true&lt;/span&gt;&lt;span style=&quot;color: #000000;&quot;&gt;,&lt;/span&gt;&lt;/div&gt;&lt;div&gt;&lt;span style=&quot;color: #000000;&quot;&gt;&amp;nbsp;&amp;nbsp;&lt;/span&gt;&lt;span style=&quot;color: #a31515;&quot;&gt;&quot;photoURL&quot;&lt;/span&gt;&lt;span style=&quot;color: #000000;&quot;&gt;:&amp;nbsp;&lt;/span&gt;&lt;span style=&quot;color: #0451a5;&quot;&gt;&quot;https://firebasestorage.googleapis.com/v0/b/mezzenger-8000.appspot.com/o/profiles%2FGD2SvIyatyWSSfaypGIYDsvw2go1.png?alt=media&amp;amp;token=ecbca762-f73e-4871-9f93-d7c1f0c97d00&quot;&lt;/span&gt;&lt;span style=&quot;color: #000000;&quot;&gt;,&lt;/span&gt;&lt;/div&gt;&lt;div&gt;&lt;span style=&quot;color: #000000;&quot;&gt;&amp;nbsp;&amp;nbsp;&lt;/span&gt;&lt;span style=&quot;color: #a31515;&quot;&gt;&quot;searchable&quot;&lt;/span&gt;&lt;span style=&quot;color: #000000;&quot;&gt;:&amp;nbsp;[&lt;/span&gt;&lt;/div&gt;&lt;div&gt;&lt;span style=&quot;color: #000000;&quot;&gt;&amp;nbsp;&amp;nbsp;&amp;nbsp;&amp;nbsp;&lt;/span&gt;&lt;span style=&quot;color: #0451a5;&quot;&gt;&quot;jhonny&quot;&lt;/span&gt;&lt;span style=&quot;color: #000000;&quot;&gt;,&lt;/span&gt;&lt;/div&gt;&lt;div&gt;&lt;span style=&quot;color: #000000;&quot;&gt;&amp;nbsp;&amp;nbsp;&amp;nbsp;&amp;nbsp;&lt;/span&gt;&lt;span style=&quot;color: #0451a5;&quot;&gt;&quot;2&quot;&lt;/span&gt;&lt;span style=&quot;color: #000000;&quot;&gt;,&lt;/span&gt;&lt;/div&gt;&lt;div&gt;&lt;span style=&quot;color: #000000;&quot;&gt;&amp;nbsp;&amp;nbsp;&amp;nbsp;&amp;nbsp;&lt;/span&gt;&lt;span style=&quot;color: #0451a5;&quot;&gt;&quot;gd2sviyatywssfaypgiydsvw2go1&quot;&lt;/span&gt;&lt;/div&gt;&lt;div&gt;&lt;span style=&quot;color: #000000;&quot;&gt;&amp;nbsp;&amp;nbsp;],&lt;/span&gt;&lt;/div&gt;&lt;div&gt;&lt;span style=&quot;color: #000000;&quot;&gt;&amp;nbsp;&amp;nbsp;&lt;/span&gt;&lt;span style=&quot;color: #a31515;&quot;&gt;&quot;uid&quot;&lt;/span&gt;&lt;span style=&quot;color: #000000;&quot;&gt;:&amp;nbsp;&lt;/span&gt;&lt;span style=&quot;color: #0451a5;&quot;&gt;&quot;GD2SvIyatyWSSfaypGIYDsvw2go1&quot;&lt;/span&gt;&lt;/div&gt;&lt;div&gt;&lt;span style=&quot;color: #000000;&quot;&gt;}&lt;/span&gt;&lt;/div&gt;&lt;/div&gt;" id="OPfQIELOTpo9MT-wm4Nm-6">
          <mxCell style="text;whiteSpace=wrap;html=1;fillColor=#dae8fc;strokeColor=#6c8ebf;" vertex="1" parent="1">
            <mxGeometry x="60" y="416" width="360" height="210" as="geometry" />
          </mxCell>
        </UserObject>
        <mxCell id="OPfQIELOTpo9MT-wm4Nm-7" value="" style="endArrow=none;dashed=1;html=1;dashPattern=1 3;strokeWidth=2;rounded=0;entryX=0.5;entryY=1;entryDx=0;entryDy=0;exitX=0.5;exitY=0;exitDx=0;exitDy=0;" edge="1" parent="1" source="OPfQIELOTpo9MT-wm4Nm-6" target="OPfQIELOTpo9MT-wm4Nm-2">
          <mxGeometry width="50" height="50" relative="1" as="geometry">
            <mxPoint x="430" y="446" as="sourcePoint" />
            <mxPoint x="480" y="396" as="targetPoint" />
          </mxGeometry>
        </mxCell>
        <UserObject label="&lt;div style=&quot;color: #000000;background-color: #fffffe;font-family: Consolas, &#39;Courier New&#39;, monospace;font-weight: normal;font-size: 14px;line-height: 19px;white-space: pre;&quot;&gt;&lt;div style=&quot;line-height: 19px;&quot;&gt;&lt;div&gt;{&lt;/div&gt;&lt;div&gt;&amp;nbsp;&amp;nbsp;&lt;span style=&quot;color: rgb(163, 21, 21);&quot;&gt;&quot;bio&quot;&lt;/span&gt;:&amp;nbsp;&lt;span style=&quot;color: rgb(4, 81, 165);&quot;&gt;&quot;ببب&quot;&lt;/span&gt;,&lt;/div&gt;&lt;div&gt;&amp;nbsp;&amp;nbsp;&lt;span style=&quot;color: rgb(163, 21, 21);&quot;&gt;&quot;createdAt&quot;&lt;/span&gt;:&amp;nbsp;&lt;span style=&quot;color: rgb(4, 81, 165);&quot;&gt;1717146570026&lt;/span&gt;,&lt;/div&gt;&lt;div&gt;&amp;nbsp;&amp;nbsp;&lt;span style=&quot;color: rgb(163, 21, 21);&quot;&gt;&quot;displayName&quot;&lt;/span&gt;:&amp;nbsp;&lt;span style=&quot;color: rgb(4, 81, 165);&quot;&gt;&quot;مارك&amp;nbsp;الزكارنة&quot;&lt;/span&gt;,&lt;/div&gt;&lt;div&gt;&amp;nbsp;&amp;nbsp;&lt;span style=&quot;color: rgb(163, 21, 21);&quot;&gt;&quot;email&quot;&lt;/span&gt;:&amp;nbsp;&lt;span style=&quot;color: rgb(4, 81, 165);&quot;&gt;&quot;aymanbazyan@gmail.com&quot;&lt;/span&gt;,&lt;/div&gt;&lt;div&gt;&amp;nbsp;&amp;nbsp;&lt;span style=&quot;color: rgb(163, 21, 21);&quot;&gt;&quot;emailVerified&quot;&lt;/span&gt;:&amp;nbsp;&lt;span style=&quot;color: rgb(4, 81, 165);&quot;&gt;true&lt;/span&gt;,&lt;/div&gt;&lt;div&gt;&amp;nbsp;&amp;nbsp;&lt;span style=&quot;color: rgb(163, 21, 21);&quot;&gt;&quot;isAdmin&quot;&lt;/span&gt;:&amp;nbsp;&lt;span style=&quot;color: rgb(4, 81, 165);&quot;&gt;true&lt;/span&gt;,&lt;/div&gt;&lt;div&gt;&amp;nbsp;&amp;nbsp;&lt;span style=&quot;color: rgb(163, 21, 21);&quot;&gt;&quot;isGoogle&quot;&lt;/span&gt;:&amp;nbsp;&lt;span style=&quot;color: rgb(4, 81, 165);&quot;&gt;true&lt;/span&gt;,&lt;/div&gt;&lt;div&gt;&amp;nbsp;&amp;nbsp;&lt;span style=&quot;color: rgb(163, 21, 21);&quot;&gt;&quot;photoURL&quot;&lt;/span&gt;:&amp;nbsp;&lt;span style=&quot;color: rgb(4, 81, 165);&quot;&gt;&quot;&amp;lt;url&amp;gt;&quot;&lt;/span&gt;,&lt;/div&gt;&lt;div&gt;&amp;nbsp;&amp;nbsp;&lt;span style=&quot;color: rgb(163, 21, 21);&quot;&gt;&quot;_uid&quot;&lt;/span&gt;:&amp;nbsp;&lt;span style=&quot;color: rgb(4, 81, 165);&quot;&gt;&quot;UDWG1LXElbSfSF08hT3mnZTof243&quot;&lt;/span&gt;&lt;/div&gt;&lt;div&gt;}&lt;/div&gt;&lt;/div&gt;&lt;/div&gt;" link="data:page/id,WqYnbw336Vgzk6C8LJyL" id="OPfQIELOTpo9MT-wm4Nm-8">
          <mxCell style="text;whiteSpace=wrap;html=1;fillColor=#dae8fc;strokeColor=#6c8ebf;" vertex="1" parent="1">
            <mxGeometry x="485" y="416" width="360" height="220" as="geometry" />
          </mxCell>
        </UserObject>
        <mxCell id="OPfQIELOTpo9MT-wm4Nm-9" value="" style="endArrow=none;dashed=1;html=1;dashPattern=1 3;strokeWidth=2;rounded=0;entryX=0.5;entryY=1;entryDx=0;entryDy=0;exitX=0.5;exitY=0;exitDx=0;exitDy=0;" edge="1" parent="1" source="OPfQIELOTpo9MT-wm4Nm-8" target="OPfQIELOTpo9MT-wm4Nm-2">
          <mxGeometry width="50" height="50" relative="1" as="geometry">
            <mxPoint x="700" y="356" as="sourcePoint" />
            <mxPoint x="750" y="306" as="targetPoint" />
          </mxGeometry>
        </mxCell>
        <mxCell id="OPfQIELOTpo9MT-wm4Nm-10" value="&lt;span style=&quot;color: rgb(4, 81, 165); font-family: Consolas, &amp;quot;Courier New&amp;quot;, monospace; font-size: 14px; font-weight: 400; text-align: left; white-space-collapse: preserve; background-color: rgb(255, 255, 254);&quot;&gt;UDWG1LXElbSfSF08hT3mnZTof243&lt;/span&gt;" style="text;strokeColor=none;fillColor=none;html=1;fontSize=24;fontStyle=1;verticalAlign=middle;align=center;" vertex="1" parent="1">
          <mxGeometry x="710" y="376" width="100" height="40" as="geometry" />
        </mxCell>
        <mxCell id="OPfQIELOTpo9MT-wm4Nm-11" value="&lt;span style=&quot;color: rgb(4, 81, 165); font-family: Consolas, &amp;quot;Courier New&amp;quot;, monospace; font-size: 14px; font-weight: 400; text-align: left; white-space-collapse: preserve; background-color: rgb(255, 255, 254);&quot;&gt;GD2SvIyatyWSSfaypGIYDsvw2go1&lt;/span&gt;" style="text;strokeColor=none;fillColor=none;html=1;fontSize=24;fontStyle=1;verticalAlign=middle;align=center;" vertex="1" parent="1">
          <mxGeometry x="80" y="376" width="100" height="40" as="geometry" />
        </mxCell>
        <UserObject label="&lt;div style=&quot;color: #000000;background-color: #fffffe;font-family: Consolas, &#39;Courier New&#39;, monospace;font-weight: normal;font-size: 14px;line-height: 19px;white-space: pre;&quot;&gt;&lt;div style=&quot;line-height: 19px;&quot;&gt;&lt;div style=&quot;text-align: center;&quot;&gt;{&lt;/div&gt;&lt;div style=&quot;text-align: center;&quot;&gt;&amp;nbsp;&amp;nbsp;&lt;span style=&quot;color: rgb(163, 21, 21);&quot;&gt;&quot;defaultEmoji&quot;&lt;/span&gt;:&amp;nbsp;&lt;span style=&quot;color: rgb(4, 81, 165);&quot;&gt;&quot;:like:&quot;&lt;/span&gt;,&lt;/div&gt;&lt;div style=&quot;text-align: center;&quot;&gt;&amp;nbsp;&amp;nbsp;&lt;span style=&quot;color: rgb(163, 21, 21);&quot;&gt;&quot;theme&quot;&lt;/span&gt;:&amp;nbsp;&lt;span style=&quot;color: rgb(4, 81, 165);&quot;&gt;&quot;Avocado&quot;,&lt;br&gt;&quot;_combinedID&quot;: &quot;&lt;/span&gt;&lt;span style=&quot;color: rgb(4, 81, 165); text-align: left;&quot;&gt;GD2SvIyatyWSSfaypGIYDsvw2go1&lt;/span&gt;&lt;span style=&quot;color: rgb(4, 81, 165); text-align: left;&quot;&gt;UDWG1LXElbSfSF08hT3mnZTof243&lt;/span&gt;&lt;span style=&quot;color: rgb(4, 81, 165);&quot;&gt;&quot;,&lt;/span&gt;&lt;/div&gt;&lt;div style=&quot;text-align: center;&quot;&gt;&lt;span class=&quot;hljs-attr&quot;&gt;&quot;messages&quot;&lt;/span&gt;&lt;span class=&quot;hljs-punctuation&quot;&gt;:&lt;/span&gt; &lt;span class=&quot;hljs-punctuation&quot;&gt;[&lt;/span&gt;{...},{...}]&lt;/div&gt;&lt;div style=&quot;text-align: center;&quot;&gt;}&lt;/div&gt;&lt;div style=&quot;text-align: center;&quot;&gt;&lt;br&gt;&lt;/div&gt;&lt;/div&gt;&lt;/div&gt;" link="&lt;div style=&quot;color: #000000;background-color: #fffffe;font-family: Consolas, &#39;Courier New&#39;, monospace;font-weight: normal;font-size: 14px;line-height: 19px;white-space: pre;&quot;&gt;&lt;div&gt;&lt;span style=&quot;color: #000000;&quot;&gt;{&lt;/span&gt;&lt;/div&gt;&lt;div&gt;&lt;span style=&quot;color: #000000;&quot;&gt;&amp;nbsp;&amp;nbsp;&lt;/span&gt;&lt;span style=&quot;color: #a31515;&quot;&gt;&quot;createdAt&quot;&lt;/span&gt;&lt;span style=&quot;color: #000000;&quot;&gt;:&amp;nbsp;&lt;/span&gt;&lt;span style=&quot;color: #0451a5;&quot;&gt;&quot;1717176591181&quot;&lt;/span&gt;&lt;span style=&quot;color: #000000;&quot;&gt;,&lt;/span&gt;&lt;/div&gt;&lt;div&gt;&lt;span style=&quot;color: #000000;&quot;&gt;&amp;nbsp;&amp;nbsp;&lt;/span&gt;&lt;span style=&quot;color: #a31515;&quot;&gt;&quot;displayName&quot;&lt;/span&gt;&lt;span style=&quot;color: #000000;&quot;&gt;:&amp;nbsp;&lt;/span&gt;&lt;span style=&quot;color: #0451a5;&quot;&gt;&quot;Jhonny&amp;nbsp;2&quot;&lt;/span&gt;&lt;span style=&quot;color: #000000;&quot;&gt;,&lt;/span&gt;&lt;/div&gt;&lt;div&gt;&lt;span style=&quot;color: #000000;&quot;&gt;&amp;nbsp;&amp;nbsp;&lt;/span&gt;&lt;span style=&quot;color: #a31515;&quot;&gt;&quot;email&quot;&lt;/span&gt;&lt;span style=&quot;color: #000000;&quot;&gt;:&amp;nbsp;&lt;/span&gt;&lt;span style=&quot;color: #0451a5;&quot;&gt;&quot;johnnywilliamssmith2@gmail.com&quot;&lt;/span&gt;&lt;span style=&quot;color: #000000;&quot;&gt;,&lt;/span&gt;&lt;/div&gt;&lt;div&gt;&lt;span style=&quot;color: #000000;&quot;&gt;&amp;nbsp;&amp;nbsp;&lt;/span&gt;&lt;span style=&quot;color: #a31515;&quot;&gt;&quot;emailVerified&quot;&lt;/span&gt;&lt;span style=&quot;color: #000000;&quot;&gt;:&amp;nbsp;&lt;/span&gt;&lt;span style=&quot;color: #0451a5;&quot;&gt;true&lt;/span&gt;&lt;span style=&quot;color: #000000;&quot;&gt;,&lt;/span&gt;&lt;/div&gt;&lt;div&gt;&lt;span style=&quot;color: #000000;&quot;&gt;&amp;nbsp;&amp;nbsp;&lt;/span&gt;&lt;span style=&quot;color: #a31515;&quot;&gt;&quot;isBanned&quot;&lt;/span&gt;&lt;span style=&quot;color: #000000;&quot;&gt;:&amp;nbsp;&lt;/span&gt;&lt;span style=&quot;color: #0451a5;&quot;&gt;false&lt;/span&gt;&lt;span style=&quot;color: #000000;&quot;&gt;,&lt;/span&gt;&lt;/div&gt;&lt;div&gt;&lt;span style=&quot;color: #000000;&quot;&gt;&amp;nbsp;&amp;nbsp;&lt;/span&gt;&lt;span style=&quot;color: #a31515;&quot;&gt;&quot;isGoogle&quot;&lt;/span&gt;&lt;span style=&quot;color: #000000;&quot;&gt;:&amp;nbsp;&lt;/span&gt;&lt;span style=&quot;color: #0451a5;&quot;&gt;true&lt;/span&gt;&lt;span style=&quot;color: #000000;&quot;&gt;,&lt;/span&gt;&lt;/div&gt;&lt;div&gt;&lt;span style=&quot;color: #000000;&quot;&gt;&amp;nbsp;&amp;nbsp;&lt;/span&gt;&lt;span style=&quot;color: #a31515;&quot;&gt;&quot;photoURL&quot;&lt;/span&gt;&lt;span style=&quot;color: #000000;&quot;&gt;:&amp;nbsp;&lt;/span&gt;&lt;span style=&quot;color: #0451a5;&quot;&gt;&quot;https://firebasestorage.googleapis.com/v0/b/mezzenger-8000.appspot.com/o/profiles%2FGD2SvIyatyWSSfaypGIYDsvw2go1.png?alt=media&amp;amp;token=ecbca762-f73e-4871-9f93-d7c1f0c97d00&quot;&lt;/span&gt;&lt;span style=&quot;color: #000000;&quot;&gt;,&lt;/span&gt;&lt;/div&gt;&lt;div&gt;&lt;span style=&quot;color: #000000;&quot;&gt;&amp;nbsp;&amp;nbsp;&lt;/span&gt;&lt;span style=&quot;color: #a31515;&quot;&gt;&quot;searchable&quot;&lt;/span&gt;&lt;span style=&quot;color: #000000;&quot;&gt;:&amp;nbsp;[&lt;/span&gt;&lt;/div&gt;&lt;div&gt;&lt;span style=&quot;color: #000000;&quot;&gt;&amp;nbsp;&amp;nbsp;&amp;nbsp;&amp;nbsp;&lt;/span&gt;&lt;span style=&quot;color: #0451a5;&quot;&gt;&quot;jhonny&quot;&lt;/span&gt;&lt;span style=&quot;color: #000000;&quot;&gt;,&lt;/span&gt;&lt;/div&gt;&lt;div&gt;&lt;span style=&quot;color: #000000;&quot;&gt;&amp;nbsp;&amp;nbsp;&amp;nbsp;&amp;nbsp;&lt;/span&gt;&lt;span style=&quot;color: #0451a5;&quot;&gt;&quot;2&quot;&lt;/span&gt;&lt;span style=&quot;color: #000000;&quot;&gt;,&lt;/span&gt;&lt;/div&gt;&lt;div&gt;&lt;span style=&quot;color: #000000;&quot;&gt;&amp;nbsp;&amp;nbsp;&amp;nbsp;&amp;nbsp;&lt;/span&gt;&lt;span style=&quot;color: #0451a5;&quot;&gt;&quot;gd2sviyatywssfaypgiydsvw2go1&quot;&lt;/span&gt;&lt;/div&gt;&lt;div&gt;&lt;span style=&quot;color: #000000;&quot;&gt;&amp;nbsp;&amp;nbsp;],&lt;/span&gt;&lt;/div&gt;&lt;div&gt;&lt;span style=&quot;color: #000000;&quot;&gt;&amp;nbsp;&amp;nbsp;&lt;/span&gt;&lt;span style=&quot;color: #a31515;&quot;&gt;&quot;uid&quot;&lt;/span&gt;&lt;span style=&quot;color: #000000;&quot;&gt;:&amp;nbsp;&lt;/span&gt;&lt;span style=&quot;color: #0451a5;&quot;&gt;&quot;GD2SvIyatyWSSfaypGIYDsvw2go1&quot;&lt;/span&gt;&lt;/div&gt;&lt;div&gt;&lt;span style=&quot;color: #000000;&quot;&gt;}&lt;/span&gt;&lt;/div&gt;&lt;/div&gt;" id="OPfQIELOTpo9MT-wm4Nm-12">
          <mxCell style="text;whiteSpace=wrap;html=1;fillColor=default;strokeColor=default;" vertex="1" parent="1">
            <mxGeometry x="960" y="376" width="580" height="140" as="geometry" />
          </mxCell>
        </UserObject>
        <mxCell id="OPfQIELOTpo9MT-wm4Nm-13" value="" style="endArrow=none;dashed=1;html=1;dashPattern=1 3;strokeWidth=2;rounded=0;entryX=0.5;entryY=1;entryDx=0;entryDy=0;exitX=0.5;exitY=0;exitDx=0;exitDy=0;" edge="1" parent="1" source="OPfQIELOTpo9MT-wm4Nm-12" target="OPfQIELOTpo9MT-wm4Nm-4">
          <mxGeometry width="50" height="50" relative="1" as="geometry">
            <mxPoint x="1220" y="416" as="sourcePoint" />
            <mxPoint x="1050" y="246" as="targetPoint" />
          </mxGeometry>
        </mxCell>
        <mxCell id="OPfQIELOTpo9MT-wm4Nm-17" value="&lt;span style=&quot;font-family: Consolas, &amp;quot;Courier New&amp;quot;, monospace; font-size: 14px; white-space: pre; background-color: rgb(255, 255, 254); color: rgb(4, 81, 165); text-align: left;&quot;&gt;GD2SvIyatyWSSfaypGIYDsvw2go1&lt;/span&gt;&lt;span style=&quot;font-family: Consolas, &amp;quot;Courier New&amp;quot;, monospace; font-size: 14px; white-space: pre; background-color: rgb(255, 255, 254); color: rgb(4, 81, 165); text-align: left;&quot;&gt;UDWG1LXElbSfSF08hT3mnZTof243&lt;/span&gt;" style="text;html=1;align=center;verticalAlign=middle;whiteSpace=wrap;rounded=0;" vertex="1" parent="1">
          <mxGeometry x="1140" y="346" width="430" height="30" as="geometry" />
        </mxCell>
        <mxCell id="OPfQIELOTpo9MT-wm4Nm-25" value="" style="endArrow=classic;html=1;rounded=0;entryX=0.5;entryY=0;entryDx=0;entryDy=0;" edge="1" parent="1" target="OPfQIELOTpo9MT-wm4Nm-29">
          <mxGeometry width="50" height="50" relative="1" as="geometry">
            <mxPoint x="1260" y="476" as="sourcePoint" />
            <mxPoint x="1170" y="656" as="targetPoint" />
            <Array as="points">
              <mxPoint x="1260" y="476" />
            </Array>
          </mxGeometry>
        </mxCell>
        <mxCell id="OPfQIELOTpo9MT-wm4Nm-26" value="" style="endArrow=classic;html=1;rounded=0;" edge="1" parent="1">
          <mxGeometry width="50" height="50" relative="1" as="geometry">
            <mxPoint x="1320" y="476" as="sourcePoint" />
            <mxPoint x="1520" y="626" as="targetPoint" />
            <Array as="points">
              <mxPoint x="1320" y="476" />
            </Array>
          </mxGeometry>
        </mxCell>
        <mxCell id="OPfQIELOTpo9MT-wm4Nm-29" value="" style="rounded=0;whiteSpace=wrap;html=1;fillColor=#dae8fc;strokeColor=#6c8ebf;" vertex="1" parent="1">
          <mxGeometry x="970" y="626" width="340" height="180" as="geometry" />
        </mxCell>
        <mxCell id="OPfQIELOTpo9MT-wm4Nm-30" value="&lt;div style=&quot;font-family: Consolas, &amp;quot;Courier New&amp;quot;, monospace; font-size: 14px; white-space: pre;&quot;&gt;{&lt;span style=&quot;background-color: initial; color: rgb(163, 21, 21);&quot;&gt;&quot;type&quot;&lt;/span&gt;&lt;span style=&quot;background-color: initial;&quot;&gt;:&amp;nbsp;&lt;/span&gt;&lt;span style=&quot;background-color: initial; color: rgb(4, 81, 165);&quot;&gt;&quot;image&quot;,&lt;/span&gt;&lt;/div&gt;&lt;div style=&quot;font-family: Consolas, &amp;quot;Courier New&amp;quot;, monospace; font-size: 14px; white-space: pre;&quot;&gt;&amp;nbsp;&amp;nbsp;&lt;span style=&quot;color: rgb(163, 21, 21);&quot;&gt;&quot;fileName&quot;&lt;/span&gt;:&amp;nbsp;&lt;span style=&quot;color: rgb(4, 81, 165);&quot;&gt;&quot;kjnvse2sco0c1.png&quot;&lt;/span&gt;,&lt;/div&gt;&lt;div style=&quot;font-family: Consolas, &amp;quot;Courier New&amp;quot;, monospace; font-size: 14px; white-space: pre;&quot;&gt;&amp;nbsp;&amp;nbsp;&lt;span style=&quot;color: rgb(163, 21, 21);&quot;&gt;&quot;fileURL&quot;&lt;/span&gt;:&amp;nbsp;&lt;span style=&quot;color: rgb(4, 81, 165);&quot;&gt;&quot;&amp;lt;url&amp;gt;&quot;&lt;/span&gt;,&lt;/div&gt;&lt;div style=&quot;font-family: Consolas, &amp;quot;Courier New&amp;quot;, monospace; font-size: 14px; white-space: pre;&quot;&gt;&amp;nbsp;&amp;nbsp;&lt;span style=&quot;color: rgb(163, 21, 21);&quot;&gt;&quot;id&quot;&lt;/span&gt;:&amp;nbsp;&lt;span style=&quot;color: rgb(4, 81, 165);&quot;&gt;&quot;1de2307c&quot;&lt;/span&gt;,&lt;/div&gt;&lt;div style=&quot;font-family: Consolas, &amp;quot;Courier New&amp;quot;, monospace; font-size: 14px; white-space: pre;&quot;&gt;&amp;nbsp;&amp;nbsp;&lt;span style=&quot;color: rgb(163, 21, 21);&quot;&gt;&quot;reactions&quot;&lt;/span&gt;:&amp;nbsp;[&lt;/div&gt;&lt;div style=&quot;font-family: Consolas, &amp;quot;Courier New&amp;quot;, monospace; font-size: 14px; white-space: pre;&quot;&gt;&amp;nbsp;&amp;nbsp;&amp;nbsp;&amp;nbsp;{&lt;span style=&quot;background-color: initial; color: rgb(163, 21, 21);&quot;&gt;&quot;&lt;/span&gt;&lt;span style=&quot;color: rgb(4, 81, 165); text-align: left; background-color: rgb(255, 255, 254);&quot;&gt;UDWG1LXElbSfSF08hT3mnZTof243&lt;/span&gt;&lt;span style=&quot;background-color: initial; color: rgb(163, 21, 21);&quot;&gt;&quot;&lt;/span&gt;&lt;span style=&quot;background-color: initial;&quot;&gt;:&amp;nbsp;&lt;/span&gt;&lt;span style=&quot;background-color: initial; color: rgb(4, 81, 165);&quot;&gt;&quot;❤️&quot;&lt;/span&gt;&lt;span style=&quot;background-color: initial;&quot;&gt;},&lt;/span&gt;&lt;/div&gt;&lt;div style=&quot;font-family: Consolas, &amp;quot;Courier New&amp;quot;, monospace; font-size: 14px; white-space: pre;&quot;&gt;&amp;nbsp;&amp;nbsp;&amp;nbsp;&amp;nbsp;{&lt;span style=&quot;background-color: initial; color: rgb(163, 21, 21);&quot;&gt;&quot;&lt;/span&gt;&lt;span style=&quot;color: rgb(4, 81, 165); text-align: left; background-color: rgb(255, 255, 254);&quot;&gt;GD2SvIyatyWSSfaypGIYDsvw2go1&lt;/span&gt;&lt;span style=&quot;background-color: initial; color: rgb(163, 21, 21);&quot;&gt;&quot;&lt;/span&gt;&lt;span style=&quot;background-color: initial;&quot;&gt;:&amp;nbsp;&lt;/span&gt;&lt;span style=&quot;background-color: initial; color: rgb(4, 81, 165);&quot;&gt;&quot;💦&quot;&lt;/span&gt;&lt;span style=&quot;background-color: initial;&quot;&gt;}&lt;/span&gt;&lt;span style=&quot;background-color: initial;&quot;&gt;],&lt;/span&gt;&lt;/div&gt;&lt;div style=&quot;font-family: Consolas, &amp;quot;Courier New&amp;quot;, monospace; font-size: 14px; white-space: pre;&quot;&gt;&amp;nbsp;&amp;nbsp;&lt;span style=&quot;color: rgb(163, 21, 21);&quot;&gt;&quot;seenBy&quot;&lt;/span&gt;:&amp;nbsp;[&lt;span style=&quot;background-color: initial; color: rgb(4, 81, 165);&quot;&gt;&quot;&lt;/span&gt;&lt;span style=&quot;color: rgb(4, 81, 165); text-align: left; background-color: rgb(255, 255, 254);&quot;&gt;UDWG1LXElbSfSF08hT3mnZTof243&lt;/span&gt;&lt;span style=&quot;background-color: initial; color: rgb(4, 81, 165);&quot;&gt;&quot;&lt;/span&gt;&lt;span style=&quot;background-color: initial;&quot;&gt;],&lt;/span&gt;&lt;/div&gt;&lt;div style=&quot;font-family: Consolas, &amp;quot;Courier New&amp;quot;, monospace; font-size: 14px; white-space: pre;&quot;&gt;&amp;nbsp;&amp;nbsp;&lt;span style=&quot;color: rgb(163, 21, 21);&quot;&gt;&quot;senderId&quot;&lt;/span&gt;:&amp;nbsp;&lt;span style=&quot;color: rgb(4, 81, 165);&quot;&gt;&quot;&lt;/span&gt;&lt;span style=&quot;color: rgb(4, 81, 165); text-align: left; background-color: rgb(255, 255, 254);&quot;&gt;GD2SvIyatyWSSfaypGIYDsvw2go1&lt;/span&gt;&lt;span style=&quot;color: rgb(4, 81, 165);&quot;&gt;&quot;&lt;/span&gt;,&lt;/div&gt;&lt;div style=&quot;font-family: Consolas, &amp;quot;Courier New&amp;quot;, monospace; font-size: 14px; white-space: pre;&quot;&gt;&amp;nbsp;&amp;nbsp;&lt;span style=&quot;color: rgb(163, 21, 21);&quot;&gt;&quot;time&quot;&lt;/span&gt;:&amp;nbsp;&lt;span style=&quot;color: rgb(9, 134, 88);&quot;&gt;1717667188000&lt;/span&gt;&lt;span style=&quot;background-color: initial;&quot;&gt;}&lt;/span&gt;&lt;/div&gt;" style="text;html=1;align=center;verticalAlign=middle;whiteSpace=wrap;rounded=0;" vertex="1" parent="1">
          <mxGeometry x="962.5" y="626" width="337.5" height="180" as="geometry" />
        </mxCell>
        <mxCell id="OPfQIELOTpo9MT-wm4Nm-36" value="" style="rounded=0;whiteSpace=wrap;html=1;fillColor=#dae8fc;strokeColor=#6c8ebf;" vertex="1" parent="1">
          <mxGeometry x="1360" y="626" width="340" height="180" as="geometry" />
        </mxCell>
        <mxCell id="OPfQIELOTpo9MT-wm4Nm-37" value="&lt;div style=&quot;font-family: Consolas, &amp;quot;Courier New&amp;quot;, monospace; font-size: 14px; white-space: pre;&quot;&gt;{&lt;span style=&quot;background-color: initial; color: rgb(163, 21, 21);&quot;&gt;&quot;type&quot;&lt;/span&gt;&lt;span style=&quot;background-color: initial;&quot;&gt;:&amp;nbsp;&lt;/span&gt;&lt;span style=&quot;background-color: initial; color: rgb(4, 81, 165);&quot;&gt;&quot;text&quot;,&lt;/span&gt;&lt;/div&gt;&lt;div style=&quot;font-family: Consolas, &amp;quot;Courier New&amp;quot;, monospace; font-size: 14px; white-space: pre;&quot;&gt;&amp;nbsp;&amp;nbsp;&lt;font color=&quot;#a31515&quot;&gt;&quot;content&quot;: &quot;hello&quot;,&lt;/font&gt;&lt;/div&gt;&lt;div style=&quot;font-family: Consolas, &amp;quot;Courier New&amp;quot;, monospace; font-size: 14px; white-space: pre;&quot;&gt;&amp;nbsp;&amp;nbsp;&lt;span style=&quot;color: rgb(163, 21, 21);&quot;&gt;&quot;id&quot;&lt;/span&gt;:&amp;nbsp;&lt;span style=&quot;color: rgb(4, 81, 165);&quot;&gt;&quot;gsdf34&quot;&lt;/span&gt;,&lt;/div&gt;&lt;div style=&quot;font-family: Consolas, &amp;quot;Courier New&amp;quot;, monospace; font-size: 14px; white-space: pre;&quot;&gt;&amp;nbsp;&amp;nbsp;&lt;span style=&quot;color: rgb(163, 21, 21);&quot;&gt;&quot;reactions&quot;&lt;/span&gt;:&amp;nbsp;[&lt;/div&gt;&lt;div style=&quot;font-family: Consolas, &amp;quot;Courier New&amp;quot;, monospace; font-size: 14px; white-space: pre;&quot;&gt;&amp;nbsp;&amp;nbsp;&amp;nbsp;&amp;nbsp;{&lt;span style=&quot;background-color: initial; color: rgb(163, 21, 21);&quot;&gt;&quot;&lt;/span&gt;&lt;span style=&quot;color: rgb(4, 81, 165); text-align: left; background-color: rgb(255, 255, 254);&quot;&gt;UDWG1LXElbSfSF08hT3mnZTof243&lt;/span&gt;&lt;span style=&quot;background-color: initial; color: rgb(163, 21, 21);&quot;&gt;&quot;&lt;/span&gt;&lt;span style=&quot;background-color: initial;&quot;&gt;:&amp;nbsp;&lt;/span&gt;&lt;span style=&quot;background-color: initial; color: rgb(4, 81, 165);&quot;&gt;&quot;❤️&quot;&lt;/span&gt;&lt;span style=&quot;background-color: initial;&quot;&gt;},&lt;/span&gt;&lt;/div&gt;&lt;div style=&quot;font-family: Consolas, &amp;quot;Courier New&amp;quot;, monospace; font-size: 14px; white-space: pre;&quot;&gt;&amp;nbsp;&amp;nbsp;&amp;nbsp;&amp;nbsp;{&lt;span style=&quot;background-color: initial; color: rgb(163, 21, 21);&quot;&gt;&quot;&lt;/span&gt;&lt;span style=&quot;color: rgb(4, 81, 165); text-align: left; background-color: rgb(255, 255, 254);&quot;&gt;GD2SvIyatyWSSfaypGIYDsvw2go1&lt;/span&gt;&lt;span style=&quot;background-color: initial; color: rgb(163, 21, 21);&quot;&gt;&quot;&lt;/span&gt;&lt;span style=&quot;background-color: initial;&quot;&gt;:&amp;nbsp;&lt;/span&gt;&lt;span style=&quot;background-color: initial; color: rgb(4, 81, 165);&quot;&gt;&quot;💦&quot;&lt;/span&gt;&lt;span style=&quot;background-color: initial;&quot;&gt;}&lt;/span&gt;&lt;span style=&quot;background-color: initial;&quot;&gt;],&lt;/span&gt;&lt;/div&gt;&lt;div style=&quot;font-family: Consolas, &amp;quot;Courier New&amp;quot;, monospace; font-size: 14px; white-space: pre;&quot;&gt;&amp;nbsp;&amp;nbsp;&lt;span style=&quot;color: rgb(163, 21, 21);&quot;&gt;&quot;seenBy&quot;&lt;/span&gt;:&amp;nbsp;[&lt;span style=&quot;background-color: initial; color: rgb(4, 81, 165);&quot;&gt;&quot;&lt;/span&gt;&lt;span style=&quot;color: rgb(4, 81, 165); text-align: left; background-color: rgb(255, 255, 254);&quot;&gt;GD2SvIyatyWSSfaypGIYDsvw2go1&lt;/span&gt;&lt;span style=&quot;background-color: initial; color: rgb(4, 81, 165);&quot;&gt;&quot;&lt;/span&gt;&lt;span style=&quot;background-color: initial;&quot;&gt;],&lt;/span&gt;&lt;/div&gt;&lt;div style=&quot;font-family: Consolas, &amp;quot;Courier New&amp;quot;, monospace; font-size: 14px; white-space: pre;&quot;&gt;&amp;nbsp;&amp;nbsp;&lt;span style=&quot;color: rgb(163, 21, 21);&quot;&gt;&quot;senderId&quot;&lt;/span&gt;:&amp;nbsp;&lt;span style=&quot;color: rgb(4, 81, 165);&quot;&gt;&quot;&lt;/span&gt;&lt;span style=&quot;color: rgb(4, 81, 165); text-align: left; background-color: rgb(255, 255, 254);&quot;&gt;UDWG1LXElbSfSF08hT3mnZTof243&lt;/span&gt;&lt;span style=&quot;color: rgb(4, 81, 165);&quot;&gt;&quot;&lt;/span&gt;,&lt;/div&gt;&lt;div style=&quot;font-family: Consolas, &amp;quot;Courier New&amp;quot;, monospace; font-size: 14px; white-space: pre;&quot;&gt;&amp;nbsp;&amp;nbsp;&lt;span style=&quot;color: rgb(163, 21, 21);&quot;&gt;&quot;time&quot;&lt;/span&gt;:&amp;nbsp;&lt;span style=&quot;color: rgb(9, 134, 88);&quot;&gt;1717667188000&lt;/span&gt;&lt;span style=&quot;background-color: initial;&quot;&gt;}&lt;/span&gt;&lt;/div&gt;" style="text;html=1;align=center;verticalAlign=middle;whiteSpace=wrap;rounded=0;" vertex="1" parent="1">
          <mxGeometry x="1350" y="626" width="337.5" height="180" as="geometry" />
        </mxCell>
        <mxCell id="OPfQIELOTpo9MT-wm4Nm-38" value="&lt;div style=&quot;font-family: Consolas, &amp;quot;Courier New&amp;quot;, monospace; font-size: 14px; text-align: left; white-space: pre;&quot;&gt;{&lt;/div&gt;&lt;div style=&quot;font-family: Consolas, &amp;quot;Courier New&amp;quot;, monospace; font-size: 14px; text-align: left; white-space: pre;&quot;&gt;&amp;nbsp;&amp;nbsp;&lt;span style=&quot;color: rgb(163, 21, 21);&quot;&gt;&quot;createdAt&quot;&lt;/span&gt;:&amp;nbsp;&lt;span style=&quot;color: rgb(4, 81, 165);&quot;&gt;1717176591181&lt;/span&gt;,&lt;/div&gt;&lt;div style=&quot;font-family: Consolas, &amp;quot;Courier New&amp;quot;, monospace; font-size: 14px; text-align: left; white-space: pre;&quot;&gt;&amp;nbsp;&amp;nbsp;&lt;span style=&quot;color: rgb(163, 21, 21);&quot;&gt;&quot;displayName&quot;&lt;/span&gt;:&amp;nbsp;&lt;span style=&quot;color: rgb(4, 81, 165);&quot;&gt;&quot;Jhonny&amp;nbsp;2&quot;&lt;/span&gt;,&lt;/div&gt;&lt;div style=&quot;font-family: Consolas, &amp;quot;Courier New&amp;quot;, monospace; font-size: 14px; text-align: left; white-space: pre;&quot;&gt;&amp;nbsp;&amp;nbsp;&lt;span style=&quot;color: rgb(163, 21, 21);&quot;&gt;&quot;email&quot;&lt;/span&gt;:&amp;nbsp;&lt;span style=&quot;color: rgb(4, 81, 165);&quot;&gt;&quot;johnnywilliamssmith2@gmail.com&quot;&lt;/span&gt;,&lt;/div&gt;&lt;div style=&quot;font-family: Consolas, &amp;quot;Courier New&amp;quot;, monospace; font-size: 14px; text-align: left; white-space: pre;&quot;&gt;&amp;nbsp;&amp;nbsp;&lt;span style=&quot;color: rgb(163, 21, 21);&quot;&gt;&quot;emailVerified&quot;&lt;/span&gt;:&amp;nbsp;&lt;span style=&quot;color: rgb(4, 81, 165);&quot;&gt;true&lt;/span&gt;,&lt;/div&gt;&lt;div style=&quot;font-family: Consolas, &amp;quot;Courier New&amp;quot;, monospace; font-size: 14px; text-align: left; white-space: pre;&quot;&gt;&amp;nbsp;&amp;nbsp;&lt;span style=&quot;color: rgb(163, 21, 21);&quot;&gt;&quot;isBanned&quot;&lt;/span&gt;:&amp;nbsp;&lt;span style=&quot;color: rgb(4, 81, 165);&quot;&gt;false&lt;/span&gt;,&lt;/div&gt;&lt;div style=&quot;font-family: Consolas, &amp;quot;Courier New&amp;quot;, monospace; font-size: 14px; text-align: left; white-space: pre;&quot;&gt;&amp;nbsp;&amp;nbsp;&lt;span style=&quot;color: rgb(163, 21, 21);&quot;&gt;&quot;isGoogle&quot;&lt;/span&gt;:&amp;nbsp;&lt;span style=&quot;color: rgb(4, 81, 165);&quot;&gt;true&lt;/span&gt;,&lt;/div&gt;&lt;div style=&quot;font-family: Consolas, &amp;quot;Courier New&amp;quot;, monospace; font-size: 14px; text-align: left; white-space: pre;&quot;&gt;&amp;nbsp;&amp;nbsp;&lt;span style=&quot;color: rgb(163, 21, 21);&quot;&gt;&quot;photoURL&quot;&lt;/span&gt;:&amp;nbsp;&lt;span style=&quot;color: rgb(4, 81, 165);&quot;&gt;&quot;&amp;lt;url&amp;gt;&quot;&lt;/span&gt;,&lt;/div&gt;&lt;div style=&quot;font-family: Consolas, &amp;quot;Courier New&amp;quot;, monospace; font-size: 14px; text-align: left; white-space: pre;&quot;&gt;&amp;nbsp;&amp;nbsp;&lt;span style=&quot;color: rgb(163, 21, 21);&quot;&gt;&quot;_uid&quot;&lt;/span&gt;:&amp;nbsp;&lt;span style=&quot;color: rgb(4, 81, 165);&quot;&gt;&quot;GD2SvIyatyWSSfaypGIYDsvw2go1&quot;&lt;/span&gt;&lt;/div&gt;&lt;div style=&quot;font-family: Consolas, &amp;quot;Courier New&amp;quot;, monospace; font-size: 14px; text-align: left; white-space: pre;&quot;&gt;}&lt;/div&gt;" style="text;html=1;align=center;verticalAlign=middle;whiteSpace=wrap;rounded=0;" vertex="1" parent="1">
          <mxGeometry x="40" y="406" width="420" height="240" as="geometry" />
        </mxCell>
        <mxCell id="OPfQIELOTpo9MT-wm4Nm-42" value="" style="endArrow=none;dashed=1;html=1;dashPattern=1 3;strokeWidth=2;rounded=0;entryX=0.5;entryY=1;entryDx=0;entryDy=0;exitX=0.5;exitY=0;exitDx=0;exitDy=0;" edge="1" parent="1" source="OPfQIELOTpo9MT-wm4Nm-44" target="OPfQIELOTpo9MT-wm4Nm-3">
          <mxGeometry width="50" height="50" relative="1" as="geometry">
            <mxPoint x="1829" y="454" as="sourcePoint" />
            <mxPoint x="2108" y="414" as="targetPoint" />
          </mxGeometry>
        </mxCell>
        <mxCell id="OPfQIELOTpo9MT-wm4Nm-43" value="" style="endArrow=none;dashed=1;html=1;dashPattern=1 3;strokeWidth=2;rounded=0;entryX=0.5;entryY=1;entryDx=0;entryDy=0;" edge="1" parent="1" target="OPfQIELOTpo9MT-wm4Nm-3">
          <mxGeometry width="50" height="50" relative="1" as="geometry">
            <mxPoint x="2335" y="493" as="sourcePoint" />
            <mxPoint x="2015" y="391" as="targetPoint" />
          </mxGeometry>
        </mxCell>
        <mxCell id="OPfQIELOTpo9MT-wm4Nm-44" value="" style="rounded=0;whiteSpace=wrap;html=1;fillColor=#dae8fc;strokeColor=#6c8ebf;" vertex="1" parent="1">
          <mxGeometry x="1775" y="439" width="247" height="174" as="geometry" />
        </mxCell>
      </root>
    </mxGraphModel>
  </diagram>
</mxfile>
